%TF.GenerationSoftware,KiCad,Pcbnew,9.0.4*%
%TF.CreationDate,2025-10-16T15:09:17-07:00*%
%TF.ProjectId,Cygnet Skywalker v1,4379676e-6574-4205-936b-7977616c6b65,rev?*%
%TF.SameCoordinates,Original*%
%TF.FileFunction,Profile,NP*%
%FSLAX46Y46*%
G04 Gerber Fmt 4.6, Leading zero omitted, Abs format (unit mm)*
G04 Created by KiCad (PCBNEW 9.0.4) date 2025-10-16 15:09:17*
%MOMM*%
%LPD*%
G01*
G04 APERTURE LIST*
%TA.AperFunction,Profile*%
%ADD10C,0.100000*%
%TD*%
G04 APERTURE END LIST*
D10*
X234625000Y-66430000D02*
X260025000Y-66430000D01*
X268366838Y-156940678D02*
G75*
G02*
X264366845Y-160940729I-4618638J618578D01*
G01*
X268366838Y-151576278D02*
X264523638Y-146603078D01*
X182530358Y-66455523D02*
X187000000Y-66430000D01*
X222560000Y-66430000D02*
X187000000Y-66430000D01*
X184278754Y-72868844D02*
X187034261Y-72865795D01*
X180366838Y-151576278D02*
X185343638Y-146599478D01*
X185343638Y-81199478D02*
X185343638Y-146599478D01*
X268366838Y-75211800D02*
X268366838Y-68960000D01*
X187034259Y-69458395D02*
G75*
G02*
X187034261Y-72865805I41J-1703705D01*
G01*
X264523638Y-81366278D02*
X264523638Y-146603078D01*
X185343638Y-81199478D02*
X180366838Y-75876278D01*
X180366838Y-75876278D02*
X180366838Y-71440678D01*
X264493638Y-69516278D02*
G75*
G02*
X264490000Y-72923726I-3638J-1703722D01*
G01*
X260663638Y-72896278D02*
G75*
G02*
X260693984Y-69494414I-23638J1701278D01*
G01*
X260663589Y-72896278D02*
X264490000Y-72923682D01*
X264493638Y-69516278D02*
X260693985Y-69494369D01*
X223916838Y-66430000D02*
X233467238Y-66430000D01*
X268366838Y-152398278D02*
X268366838Y-151576278D01*
X234625000Y-66430000D02*
X233467238Y-66430000D01*
X260025000Y-66430000D02*
X266020000Y-66440000D01*
X268366838Y-152398278D02*
X268366838Y-156940678D01*
X222560000Y-66430000D02*
X223916838Y-66430000D01*
X268366838Y-76246278D02*
X264523638Y-81366278D01*
X268366838Y-75211800D02*
X268366838Y-76246278D01*
X264366838Y-160940678D02*
X184366838Y-160940678D01*
X180366838Y-71440678D02*
G75*
G02*
X182530359Y-66455524I6488762J145978D01*
G01*
X184323660Y-69460478D02*
X187034259Y-69458395D01*
X180366838Y-152866278D02*
X180366838Y-151576278D01*
X184366838Y-160940678D02*
G75*
G02*
X180366794Y-157940690I-60638J4085878D01*
G01*
X184278743Y-72868844D02*
G75*
G02*
X184323641Y-69460523I145157J1702544D01*
G01*
X268366838Y-68960000D02*
X266020000Y-66440000D01*
X180366838Y-157940678D02*
X180366838Y-152866278D01*
M02*
