M48
; DRILL file {KiCad 9.0.4} date 2025-10-16T15:09:17-0700
; FORMAT={-:-/ absolute / inch / decimal}
; #@! TF.CreationDate,2025-10-16T15:09:17-07:00
; #@! TF.GenerationSoftware,Kicad,Pcbnew,9.0.4
; #@! TF.FileFunction,Plated,1,4,PTH
FMAT,2
INCH
; #@! TA.AperFunction,Plated,PTH,ViaDrill
T1C0.0079
; #@! TA.AperFunction,Plated,PTH,ComponentDrill
T2C0.0079
; #@! TA.AperFunction,Plated,PTH,ComponentDrill
T3C0.0098
; #@! TA.AperFunction,Plated,PTH,ViaDrill
T4C0.0118
; #@! TA.AperFunction,Plated,PTH,ViaDrill
T5C0.0157
; #@! TA.AperFunction,Plated,PTH,ComponentDrill
T6C0.0197
; #@! TA.AperFunction,Plated,PTH,ComponentDrill
T7C0.0217
; #@! TA.AperFunction,Plated,PTH,ComponentDrill
T8C0.0256
; #@! TA.AperFunction,Plated,PTH,ComponentDrill
T9C0.0335
; #@! TA.AperFunction,Plated,PTH,ComponentDrill
T10C0.0394
; #@! TA.AperFunction,Plated,PTH,ComponentDrill
T11C0.0547
; #@! TA.AperFunction,Plated,PTH,ComponentDrill
T12C0.0591
; #@! TA.AperFunction,Plated,PTH,ComponentDrill
T13C0.0669
; #@! TA.AperFunction,Plated,PTH,ComponentDrill
T14C0.1260
%
G90
G05
T1
X7.5994Y-5.185
X7.6358Y-5.1703
X7.6945Y-4.8382
X7.7136Y-5.0768
X7.7254Y-4.9449
X7.7705Y-4.9508
X7.7941Y-4.8346
X7.8055Y-5.1216
X7.8165Y-4.9327
X7.8197Y-4.8976
X7.9024Y-5.0185
X7.9638Y-3.7866
X7.9724Y-4.9445
X7.9807Y-3.6792
X7.9819Y-5.4717
X7.9937Y-3.5638
X8.0205Y-4.9839
X8.0213Y-5.4705
X8.0343Y-5.122
X8.0528Y-4.7417
X8.0693Y-5.5421
X8.0858Y-4.2354
X8.0957Y-3.7327
X8.1543Y-3.7327
X8.1547Y-5.6965
X8.1673Y-4.5189
X8.2209Y-5.0791
X8.2445Y-5.7433
X8.2571Y-5.6602
X8.3161Y-5.0531
X8.324Y-5.5957
X8.3276Y-4.748
X8.3311Y-5.0791
X8.3346Y-4.698
X8.3394Y-4.7736
X8.3555Y-5.0087
X8.3665Y-4.7839
X8.3693Y-4.8134
X8.3799Y-5.6126
X8.3827Y-4.698
X8.3827Y-5.1087
X8.385Y-3.2244
X8.3984Y-5.8228
X8.4004Y-5.352
X8.4028Y-5.4488
X8.4079Y-4.8437
X8.4094Y-5.0004
X8.4154Y-4.5923
X8.4169Y-4.7008
X8.431Y-5.768
X8.436Y-4.2657
X8.4374Y-4.9083
X8.439Y-4.8445
X8.4488Y-4.5943
X8.4547Y-3.751
X8.4547Y-4.7008
X8.4557Y-3.7224
X8.4557Y-3.7795
X8.4669Y-4.8498
X8.4689Y-5.748
X8.4752Y-5.7087
X8.4803Y-5.5921
X8.485Y-5.7925
X8.4921Y-4.3305
X8.502Y-4.2963
X8.5035Y-5.1366
X8.5083Y-5.5877
X8.5087Y-5.2307
X8.5102Y-5.4173
X8.5145Y-5.2035
X8.5232Y-5.7831
X8.5327Y-5.0449
X8.5425Y-5.1713
X8.5441Y-3.8496
X8.5453Y-4.4722
X8.5453Y-4.5096
X8.5571Y-4.685
X8.5571Y-4.7126
X8.5571Y-4.7598
X8.5571Y-4.7874
X8.5581Y-3.7756
X8.563Y-3.7244
X8.5776Y-5.6748
X8.5807Y-4.9693
X8.5807Y-5.0071
X8.5819Y-5.2154
X8.5831Y-4.9378
X8.6083Y-4.8661
X8.6335Y-5.6059
X8.6358Y-4.8661
X8.6358Y-5.1211
X8.639Y-5.4169
X8.6555Y-4.6614
X8.6579Y-3.8618
X8.6705Y-5.2189
X8.6791Y-3.7766
X8.6831Y-4.6614
X8.6831Y-4.8661
X8.6909Y-4.547
X8.6909Y-5.0071
X8.6921Y-4.978
X8.6935Y-4.5766
X8.7067Y-4.8661
X8.7256Y-5.213
X8.7303Y-4.6614
X8.7327Y-5.0268
X8.7406Y-5.4106
X8.7559Y-5.1244
X8.7579Y-4.6614
X8.7618Y-4.6969
X8.7618Y-4.7244
X8.7618Y-4.7717
X8.7618Y-4.7992
X8.7803Y-4.961
X8.7854Y-4.5451
X8.7854Y-4.5687
X8.7858Y-4.9331
X8.7894Y-3.7413
X8.7898Y-5.2685
X8.7921Y-4.9878
X8.8264Y-4.9724
X8.8271Y-5.3618
X8.8358Y-5.0346
X8.8366Y-4.423
X8.8488Y-4.787
X8.8496Y-4.8921
X8.8539Y-4.9764
X8.8701Y-4.9126
X8.8724Y-4.8028
X8.8823Y-4.6047
X8.8839Y-4.7122
X8.8902Y-4.9736
X8.8965Y-5.2925
X8.8969Y-5.3354
X8.9004Y-4.7984
X8.9051Y-5.0776
X8.9098Y-4.6063
X8.9169Y-4.8453
X8.9177Y-4.7122
X8.9354Y-4.8012
X8.9472Y-4.7783
X8.9693Y-4.2256
X8.9748Y-4.598
X8.9972Y-4.8929
X8.998Y-4.228
X9.0063Y-4.7161
X9.0071Y-4.5996
X9.0248Y-5.4858
X9.0264Y-4.228
X9.0315Y-5.3811
X9.0539Y-5.3594
X9.0563Y-4.2276
X9.0732Y-4.9295
X9.0756Y-4.8823
X9.0886Y-4.2276
X9.1193Y-4.2272
X9.1226Y-4.7959
X9.1256Y-4.9394
X9.1984Y-5.3866
X9.374Y-4.2059
X9.3839Y-4.3858
X9.3894Y-4.3063
X9.5362Y-3.6413
X9.6035Y-3.6024
X9.6058Y-3.5359
X9.7061Y-4.9163
X9.8189Y-4.9122
X9.9232Y-4.9138
X9.9279Y-3.6728
X10.032Y-3.6334
T2
X7.8024Y-4.124
X7.8024Y-4.1705
X7.8488Y-4.124
X7.8488Y-4.1705
T3
X8.6053Y-4.7096
X8.6053Y-4.7638
X8.6053Y-4.8179
X8.6594Y-4.7096
X8.6594Y-4.7638
X8.6594Y-4.8179
X8.7136Y-4.7096
X8.7136Y-4.7638
X8.7136Y-4.8179
T4
X7.3587Y-5.5614
X7.4833Y-3.0571
X7.4961Y-5.8744
X7.5028Y-5.4799
X7.5287Y-6.0016
X7.5469Y-4.7433
X7.5722Y-3.5656
X7.5955Y-5.4843
X7.611Y-5.8728
X7.6181Y-3.0522
X7.6465Y-6.0969
X7.6701Y-5.9689
X7.69Y-5.1752
X7.6909Y-4.9449
X7.7Y-4.7535
X7.7272Y-6.0295
X7.7274Y-5.1742
X7.7303Y-5.4902
X7.7431Y-3.0571
X7.7445Y-5.6673
X7.7449Y-6.1732
X7.7677Y-4.0571
X7.7772Y-6.078
X7.7803Y-4.2764
X7.8228Y-6.2248
X7.8661Y-3.0571
X7.889Y-6.098
X7.9055Y-5.4654
X7.939Y-3.4492
X7.9472Y-4.0823
X7.9874Y-3.9571
X8.102Y-5.4327
X8.1933Y-5.0587
X8.3333Y-6.2301
X8.3437Y-4.0969
X8.411Y-4.0642
X8.4632Y-6.2754
X8.5016Y-5.8437
X8.5173Y-5.4469
X8.5911Y-6.2724
X8.6295Y-5.511
X8.7524Y-5.5098
X8.7571Y-5.5409
X8.7835Y-5.9465
X8.822Y-3.8059
X8.9705Y-5.9331
X9.128Y-5.9469
X9.2311Y-3.7598
X9.322Y-5.922
X9.3795Y-4.1075
X9.3803Y-4.0047
X9.3913Y-3.6925
X9.4854Y-3.137
X9.5217Y-4.0976
X9.5291Y-3.3893
X9.5291Y-3.4444
X9.5319Y-4.0035
X9.5398Y-3.7791
X9.6649Y-3.1609
X9.6649Y-3.6019
X9.6767Y-3.3263
X9.7594Y-3.3184
X9.8125Y-3.6698
X9.8873Y-3.2963
X9.9011Y-3.1609
X9.9523Y-3.2357
X10.0189Y-5.052
X10.0213Y-4.9118
X10.0271Y-3.3834
X10.1205Y-5.0555
X10.1248Y-4.911
T5
X7.4931Y-3.5958
X7.5217Y-3.9715
X7.5339Y-4.0217
X7.6496Y-3.5591
X7.6575Y-5.0689
X7.7551Y-3.9622
X7.7563Y-4.2303
X7.7689Y-3.563
X7.8177Y-3.7795
X7.8252Y-3.4962
X7.8563Y-3.3248
X7.8591Y-4.3787
X7.8646Y-3.4509
X7.885Y-4.2374
X7.8888Y-3.563
X7.9339Y-4.3811
X8.0039Y-3.2232
X8.0232Y-4.2563
X8.0287Y-3.5705
X8.0327Y-4.0898
X8.0335Y-3.1606
X8.0634Y-4.1697
X8.1051Y-3.1543
X8.1866Y-3.1516
X8.3437Y-3.1626
X8.3469Y-3.4272
X8.4311Y-3.1551
X8.4583Y-3.2055
X8.9783Y-5.6858
X8.9827Y-5.6087
X9.1189Y-4.4256
X9.163Y-3.8335
X9.1921Y-3.3752
X9.1937Y-4.4232
X9.1969Y-3.4504
X10.0339Y-5.8484
X10.1083Y-5.8453
X10.2752Y-4.7217
T8
X8.2323Y-5.1441
X8.2323Y-5.1941
X8.2823Y-5.1441
X8.2823Y-5.1941
T9
X7.4124Y-4.9222
X7.4124Y-5.001
X7.4124Y-5.0797
X7.4124Y-5.1585
X7.4124Y-5.2372
X7.4124Y-5.3159
X7.4911Y-4.9222
X7.4911Y-5.001
X7.4911Y-5.0797
X7.4911Y-5.1585
X7.4911Y-5.2372
X7.4911Y-5.3159
X8.8583Y-3.9559
X8.8583Y-4.0346
X8.937Y-3.9559
X8.937Y-4.0346
X9.0157Y-3.9559
X9.0157Y-4.0346
X9.0945Y-3.9559
X9.0945Y-4.0346
X9.1732Y-3.9559
X9.1732Y-4.0346
X9.252Y-3.9559
X9.252Y-4.0346
T10
X9.4759Y-3.613
X9.4759Y-3.713
T11
X8.0285Y-3.064
X8.3102Y-5.5004
X8.3278Y-3.063
X8.6329Y-3.0679
X8.9177Y-3.0693
X8.9504Y-3.5165
X8.952Y-3.3457
X8.9539Y-3.6961
X9.1264Y-4.585
X9.235Y-4.7622
T12
X7.5598Y-5.6713
T13
X7.4598Y-5.5713
X7.4598Y-5.7713
X7.6598Y-5.5713
X7.6598Y-5.7713
T14
X7.2568Y-6.1758
X10.4064Y-6.1758
T6
G00X7.3725Y-3.7933
M15
G01X7.3469Y-3.7933
M16
G05
G00X7.3725Y-4.0689
M15
G01X7.3469Y-4.0689
M16
G05
T7
G00X7.466Y-3.8268
M15
G01X7.466Y-3.8386
M16
G05
G00X7.466Y-4.0236
M15
G01X7.466Y-4.0354
M16
G05
M30
